<?xml version="1.0" encoding="UTF-8" standalone="no"?><!DOCTYPE svg PUBLIC "-//W3C//DTD SVG 1.1//EN" "http://www.w3.org/Graphics/SVG/1.1/DTD/svg11.dtd"><svg width="100%" height="100%" viewBox="0 0 1558 1466" version="1.1" xmlns="http://www.w3.org/2000/svg" xmlns:xlink="http://www.w3.org/1999/xlink" xml:space="preserve" xmlns:serif="http://www.serif.com/" style="fill-rule:evenodd;clip-rule:evenodd;stroke-linejoin:round;stroke-miterlimit:2;"><rect id="画板1" x="0" y="0" width="1557.41" height="1465.8" style="fill:none;"/><path d="M1448.55,290.545c0,-125.1 -101.562,-226.663 -226.663,-226.663l-902.108,0c-125.1,0 -226.662,101.563 -226.662,226.663l-0,902.108c-0,125.1 101.562,226.662 226.662,226.662l902.108,0c125.101,0 226.663,-101.562 226.663,-226.662l0,-902.108Z" style="fill:#312f2f;"/><path d="M408.933,734.79l559.792,0c99.562,0 180.275,80.709 180.275,180.271c0,99.559 -80.712,180.275 -180.275,180.275l-559.792,0c91.7,0 166.038,-74.341 166.038,-166.046l-0,-28.462c-0,-91.704 -74.338,-166.038 -166.038,-166.038Z" style="fill:#968b6d;fill-rule:nonzero;"/><path d="M927.967,770.824l9.337,-165.317l-143.458,0c0.225,254.354 0.571,387.221 1.021,398.608c0.687,17.08 1.025,26.759 1.025,29.034c-0,9.112 -6.605,16.621 -19.809,22.541c-13.208,5.921 -21.745,8.884 -25.616,8.884c-3.871,-0 -6.492,-1.704 -7.859,-5.125c-1.366,-3.413 -1.596,-9.446 -0.683,-18.1c2.429,-23.688 4.254,-168.963 5.467,-435.842l-134.584,0c-19.125,0 -34.608,2.504 -46.45,7.513l-24.591,-30.059c16.85,2.279 35.746,3.417 56.7,3.417l148.925,-0l-0,-49.188c-0,-40.075 -0.913,-78.558 -2.734,-115.45l70.367,29.375c5.462,1.821 8.196,3.984 8.196,6.492c-0,2.504 -2.734,5.35 -8.196,8.538l-21.179,13.662l-0,106.571l136.625,-0l25.962,-32.108l48.5,37.575c4.1,2.733 6.146,5.233 6.146,7.512c0,2.279 -2.733,5.013 -8.196,8.2l-20.495,10.929l-9.563,133.213l-44.854,19.125l-0.004,-0Zm42.504,-295.796c57.387,15.029 95.871,28.692 115.454,40.987c19.583,12.296 29.375,28.234 29.375,47.817c0,8.2 -2.162,15.488 -6.492,21.858c-4.325,6.38 -10.479,9.567 -18.445,9.567c-7.971,0 -16.513,-6.604 -25.617,-19.808c-16.392,-25.504 -49.867,-56.246 -100.421,-92.225l6.146,-8.196Z" style="fill:#fffdfd;fill-rule:nonzero;"/><circle cx="455.183" cy="927.315" r="64.988" style="fill:#ffecec;"/><path d="M1359.5,170.19c-0,-20.925 -16.988,-37.912 -37.913,-37.912l-345.454,-0c-20.925,-0 -37.912,16.987 -37.912,37.912l-0,75.83c-0,20.925 16.987,37.912 37.912,37.912l345.454,0c20.925,0 37.913,-16.987 37.913,-37.912l-0,-75.83Z" style="fill:#f00;"/><path d="M1020.84,169.215c8.904,0 15.791,1.875 20.666,5.617c5.3,3.888 8.304,9.967 9.013,18.233l-11.45,0c-1.059,-5.016 -3.038,-8.55 -5.934,-10.6c-2.9,-2.191 -7.208,-3.287 -12.933,-3.287c-4.946,-0 -8.762,0.742 -11.446,2.229c-3.25,1.696 -4.875,4.45 -4.875,8.267c0,3.391 1.871,6.075 5.617,8.054c1.837,1.062 6.217,2.617 13.142,4.667c10.458,3.25 17.066,5.72 19.82,7.416c6.505,3.959 9.755,9.4 9.755,16.325c-0,6.713 -2.65,12.046 -7.951,16.004c-5.299,3.817 -12.72,5.725 -22.258,5.725c-9.116,0 -16.325,-1.837 -21.625,-5.512c-6.216,-4.45 -9.646,-11.446 -10.283,-20.988l11.45,0c0.846,6.009 2.966,10.284 6.358,12.825c3.109,2.334 7.809,3.5 14.1,3.5c5.579,0 10.138,-0.991 13.671,-2.97c3.392,-1.909 5.088,-4.555 5.088,-7.95c-0,-4.167 -2.4,-7.488 -7.209,-9.963c-1.766,-0.846 -6.783,-2.542 -15.05,-5.087c-9.466,-3.038 -15.262,-5.121 -17.383,-6.255c-5.796,-3.462 -8.692,-8.512 -8.692,-15.158c0,-6.642 2.792,-11.871 8.375,-15.683c5.3,-3.604 11.975,-5.409 20.033,-5.409Zm64.28,20.884c9.045,-0 15.866,3.037 20.458,9.112c4.313,5.584 6.5,13.217 6.571,22.896l-41.55,0c0.425,5.442 1.875,9.542 4.346,12.296c2.616,2.825 6.112,4.242 10.496,4.242c3.887,-0 7.066,-0.921 9.537,-2.759c1.767,-1.341 3.429,-3.708 4.983,-7.1l11.234,0c-1.342,5.229 -3.85,9.504 -7.525,12.825c-4.804,4.171 -10.846,6.254 -18.125,6.254c-8.125,0 -14.521,-2.508 -19.184,-7.525c-5.087,-5.3 -7.633,-12.437 -7.633,-21.412c0,-8.196 2.404,-15.017 7.208,-20.458c4.663,-5.58 11.059,-8.371 19.184,-8.371Zm0.321,9.221c-4.242,-0 -7.596,1.237 -10.071,3.708c-2.404,2.546 -3.921,6.079 -4.559,10.6l29.575,-0c-1.062,-9.538 -6.041,-14.308 -14.945,-14.308Zm61.737,-9.221c2.896,-0 5.262,0.458 7.1,1.375l0,11.237c-2.542,-0.779 -5.192,-1.166 -7.95,-1.166c-3.392,-0 -6.429,1.379 -9.112,4.133c-2.83,2.896 -4.242,6.783 -4.242,11.658l-0,29.046l-11.238,0l0,-54.8l11.238,0l-0,8.267c1.341,-2.896 3.108,-5.125 5.3,-6.679c2.471,-2.046 5.442,-3.071 8.904,-3.071Zm8.167,1.483l12.191,0l13.78,40.808l13.779,-40.808l12.187,0l-20.35,54.8l-11.233,0l-20.354,-54.8Zm82.041,-1.483c9.046,-0 15.863,3.037 20.459,9.112c4.308,5.584 6.5,13.217 6.571,22.896l-41.55,0c0.425,5.442 1.87,9.542 4.345,12.296c2.613,2.825 6.113,4.242 10.492,4.242c3.888,-0 7.067,-0.921 9.542,-2.759c1.766,-1.341 3.425,-3.708 4.979,-7.1l11.237,0c-1.341,5.229 -3.85,9.504 -7.525,12.825c-4.804,4.171 -10.845,6.254 -18.125,6.254c-8.129,0 -14.52,-2.508 -19.187,-7.525c-5.088,-5.3 -7.629,-12.437 -7.629,-21.412c-0,-8.196 2.4,-15.017 7.208,-20.458c4.663,-5.58 11.058,-8.371 19.183,-8.371Zm0.317,9.221c-4.237,-0 -7.596,1.237 -10.067,3.708c-2.404,2.546 -3.925,6.079 -4.558,10.6l29.571,-0c-1.058,-9.538 -6.042,-14.308 -14.946,-14.308Zm61.737,-9.221c2.9,-0 5.267,0.458 7.105,1.375l-0,11.237c-2.546,-0.779 -5.196,-1.166 -7.95,-1.166c-3.392,-0 -6.43,1.379 -9.117,4.133c-2.825,2.896 -4.242,6.783 -4.242,11.658l0,29.046l-11.233,0l-0,-54.8l11.233,0l0,8.267c1.346,-2.896 3.113,-5.125 5.3,-6.679c2.475,-2.046 5.442,-3.071 8.904,-3.071Z" style="fill:#fffcfc;fill-rule:nonzero;"/></svg>